<mxfile host="app.diagrams.net" modified="2022-08-22T07:54:49.886Z" agent="5.0 (Windows NT 10.0; Win64; x64) AppleWebKit/537.36 (KHTML, like Gecko) Chrome/104.0.0.0 Safari/537.36" etag="rjtlMfV69u98Dtdt8teE" version="20.2.6" type="github">
  <diagram id="R2lEEEUBdFMjLlhIrx00" name="Page-1">
    <mxGraphModel dx="1422" dy="705" grid="0" gridSize="10" guides="0" tooltips="1" connect="1" arrows="1" fold="1" page="1" pageScale="1" pageWidth="850" pageHeight="1100" math="0" shadow="0" extFonts="Permanent Marker^https://fonts.googleapis.com/css?family=Permanent+Marker">
      <root>
        <mxCell id="0" />
        <mxCell id="1" parent="0" />
        <mxCell id="C-vyLk0tnHw3VtMMgP7b-23" value="Reservations" style="shape=table;startSize=30;container=1;collapsible=1;childLayout=tableLayout;fixedRows=1;rowLines=0;fontStyle=1;align=center;resizeLast=1;fillColor=#fff2cc;strokeColor=#d6b656;" parent="1" vertex="1">
          <mxGeometry x="146" y="38" width="410" height="313.8016115824381" as="geometry" />
        </mxCell>
        <mxCell id="C-vyLk0tnHw3VtMMgP7b-24" value="" style="shape=partialRectangle;collapsible=0;dropTarget=0;pointerEvents=0;fillColor=none;points=[[0,0.5],[1,0.5]];portConstraint=eastwest;top=0;left=0;right=0;bottom=1;" parent="C-vyLk0tnHw3VtMMgP7b-23" vertex="1">
          <mxGeometry y="30" width="410" height="30" as="geometry" />
        </mxCell>
        <mxCell id="C-vyLk0tnHw3VtMMgP7b-25" value="ID" style="shape=partialRectangle;overflow=hidden;connectable=0;fillColor=#f8cecc;top=0;left=0;bottom=0;right=0;fontStyle=1;strokeColor=#b85450;" parent="C-vyLk0tnHw3VtMMgP7b-24" vertex="1">
          <mxGeometry width="30" height="30" as="geometry">
            <mxRectangle width="30" height="30" as="alternateBounds" />
          </mxGeometry>
        </mxCell>
        <mxCell id="C-vyLk0tnHw3VtMMgP7b-26" value="id_reservation int PRIMARY KEY AUTO_INCREMENT NOT NULL" style="shape=partialRectangle;overflow=hidden;connectable=0;fillColor=#f8cecc;top=0;left=0;bottom=0;right=0;align=left;spacingLeft=6;fontStyle=5;strokeColor=#b85450;" parent="C-vyLk0tnHw3VtMMgP7b-24" vertex="1">
          <mxGeometry x="30" width="380" height="30" as="geometry">
            <mxRectangle width="380" height="30" as="alternateBounds" />
          </mxGeometry>
        </mxCell>
        <mxCell id="C-vyLk0tnHw3VtMMgP7b-27" value="" style="shape=partialRectangle;collapsible=0;dropTarget=0;pointerEvents=0;fillColor=none;points=[[0,0.5],[1,0.5]];portConstraint=eastwest;top=0;left=0;right=0;bottom=0;" parent="C-vyLk0tnHw3VtMMgP7b-23" vertex="1">
          <mxGeometry y="60" width="410" height="32" as="geometry" />
        </mxCell>
        <mxCell id="C-vyLk0tnHw3VtMMgP7b-28" value="" style="shape=partialRectangle;overflow=hidden;connectable=0;fillColor=#fff2cc;top=0;left=0;bottom=0;right=0;strokeColor=#d6b656;" parent="C-vyLk0tnHw3VtMMgP7b-27" vertex="1">
          <mxGeometry width="30" height="32" as="geometry">
            <mxRectangle width="30" height="32" as="alternateBounds" />
          </mxGeometry>
        </mxCell>
        <mxCell id="C-vyLk0tnHw3VtMMgP7b-29" value="token_reservation VARCHAR(255) NOT NULL" style="shape=partialRectangle;overflow=hidden;connectable=0;fillColor=#fff2cc;top=0;left=0;bottom=0;right=0;align=left;spacingLeft=6;strokeColor=#d6b656;" parent="C-vyLk0tnHw3VtMMgP7b-27" vertex="1">
          <mxGeometry x="30" width="380" height="32" as="geometry">
            <mxRectangle width="380" height="32" as="alternateBounds" />
          </mxGeometry>
        </mxCell>
        <mxCell id="5EWCGwdDj0wh6ERNvwwW-28" style="shape=partialRectangle;collapsible=0;dropTarget=0;pointerEvents=0;fillColor=none;points=[[0,0.5],[1,0.5]];portConstraint=eastwest;top=0;left=0;right=0;bottom=0;" parent="C-vyLk0tnHw3VtMMgP7b-23" vertex="1">
          <mxGeometry y="92" width="410" height="30" as="geometry" />
        </mxCell>
        <mxCell id="5EWCGwdDj0wh6ERNvwwW-29" style="shape=partialRectangle;overflow=hidden;connectable=0;fillColor=#fff2cc;top=0;left=0;bottom=0;right=0;strokeColor=#d6b656;" parent="5EWCGwdDj0wh6ERNvwwW-28" vertex="1">
          <mxGeometry width="30" height="30" as="geometry">
            <mxRectangle width="30" height="30" as="alternateBounds" />
          </mxGeometry>
        </mxCell>
        <mxCell id="5EWCGwdDj0wh6ERNvwwW-30" value="nb_adulte INT(5) NOT NULL" style="shape=partialRectangle;overflow=hidden;connectable=0;fillColor=#fff2cc;top=0;left=0;bottom=0;right=0;align=left;spacingLeft=6;strokeColor=#d6b656;" parent="5EWCGwdDj0wh6ERNvwwW-28" vertex="1">
          <mxGeometry x="30" width="380" height="30" as="geometry">
            <mxRectangle width="380" height="30" as="alternateBounds" />
          </mxGeometry>
        </mxCell>
        <mxCell id="5EWCGwdDj0wh6ERNvwwW-34" style="shape=partialRectangle;collapsible=0;dropTarget=0;pointerEvents=0;fillColor=none;points=[[0,0.5],[1,0.5]];portConstraint=eastwest;top=0;left=0;right=0;bottom=0;" parent="C-vyLk0tnHw3VtMMgP7b-23" vertex="1">
          <mxGeometry y="122" width="410" height="30" as="geometry" />
        </mxCell>
        <mxCell id="5EWCGwdDj0wh6ERNvwwW-35" style="shape=partialRectangle;overflow=hidden;connectable=0;fillColor=#fff2cc;top=0;left=0;bottom=0;right=0;strokeColor=#d6b656;" parent="5EWCGwdDj0wh6ERNvwwW-34" vertex="1">
          <mxGeometry width="30" height="30" as="geometry">
            <mxRectangle width="30" height="30" as="alternateBounds" />
          </mxGeometry>
        </mxCell>
        <mxCell id="5EWCGwdDj0wh6ERNvwwW-36" value="nb_enfant INT(5)" style="shape=partialRectangle;overflow=hidden;connectable=0;fillColor=#fff2cc;top=0;left=0;bottom=0;right=0;align=left;spacingLeft=6;strokeColor=#d6b656;" parent="5EWCGwdDj0wh6ERNvwwW-34" vertex="1">
          <mxGeometry x="30" width="380" height="30" as="geometry">
            <mxRectangle width="380" height="30" as="alternateBounds" />
          </mxGeometry>
        </mxCell>
        <mxCell id="5EWCGwdDj0wh6ERNvwwW-37" style="shape=partialRectangle;collapsible=0;dropTarget=0;pointerEvents=0;fillColor=none;points=[[0,0.5],[1,0.5]];portConstraint=eastwest;top=0;left=0;right=0;bottom=0;" parent="C-vyLk0tnHw3VtMMgP7b-23" vertex="1">
          <mxGeometry y="152" width="410" height="30" as="geometry" />
        </mxCell>
        <mxCell id="5EWCGwdDj0wh6ERNvwwW-38" style="shape=partialRectangle;overflow=hidden;connectable=0;fillColor=#fff2cc;top=0;left=0;bottom=0;right=0;strokeColor=#d6b656;" parent="5EWCGwdDj0wh6ERNvwwW-37" vertex="1">
          <mxGeometry width="30" height="30" as="geometry">
            <mxRectangle width="30" height="30" as="alternateBounds" />
          </mxGeometry>
        </mxCell>
        <mxCell id="5EWCGwdDj0wh6ERNvwwW-39" value="nb_animal INT(5)" style="shape=partialRectangle;overflow=hidden;connectable=0;fillColor=#fff2cc;top=0;left=0;bottom=0;right=0;align=left;spacingLeft=6;strokeColor=#d6b656;" parent="5EWCGwdDj0wh6ERNvwwW-37" vertex="1">
          <mxGeometry x="30" width="380" height="30" as="geometry">
            <mxRectangle width="380" height="30" as="alternateBounds" />
          </mxGeometry>
        </mxCell>
        <mxCell id="5EWCGwdDj0wh6ERNvwwW-40" style="shape=partialRectangle;collapsible=0;dropTarget=0;pointerEvents=0;fillColor=none;points=[[0,0.5],[1,0.5]];portConstraint=eastwest;top=0;left=0;right=0;bottom=0;" parent="C-vyLk0tnHw3VtMMgP7b-23" vertex="1">
          <mxGeometry y="182" width="410" height="31" as="geometry" />
        </mxCell>
        <mxCell id="5EWCGwdDj0wh6ERNvwwW-41" style="shape=partialRectangle;overflow=hidden;connectable=0;fillColor=#fff2cc;top=0;left=0;bottom=0;right=0;strokeColor=#d6b656;" parent="5EWCGwdDj0wh6ERNvwwW-40" vertex="1">
          <mxGeometry width="30" height="31" as="geometry">
            <mxRectangle width="30" height="31" as="alternateBounds" />
          </mxGeometry>
        </mxCell>
        <mxCell id="5EWCGwdDj0wh6ERNvwwW-42" value="precision_animal VARCHAR(255)" style="shape=partialRectangle;overflow=hidden;connectable=0;fillColor=#fff2cc;top=0;left=0;bottom=0;right=0;align=left;spacingLeft=6;strokeColor=#d6b656;" parent="5EWCGwdDj0wh6ERNvwwW-40" vertex="1">
          <mxGeometry x="30" width="380" height="31" as="geometry">
            <mxRectangle width="380" height="31" as="alternateBounds" />
          </mxGeometry>
        </mxCell>
        <mxCell id="H8Cnw3-nCuT73okqzJ7A-1" style="shape=partialRectangle;collapsible=0;dropTarget=0;pointerEvents=0;fillColor=none;points=[[0,0.5],[1,0.5]];portConstraint=eastwest;top=0;left=0;right=0;bottom=0;" vertex="1" parent="C-vyLk0tnHw3VtMMgP7b-23">
          <mxGeometry y="213" width="410" height="31" as="geometry" />
        </mxCell>
        <mxCell id="H8Cnw3-nCuT73okqzJ7A-2" style="shape=partialRectangle;overflow=hidden;connectable=0;fillColor=#fff2cc;top=0;left=0;bottom=0;right=0;strokeColor=#d6b656;" vertex="1" parent="H8Cnw3-nCuT73okqzJ7A-1">
          <mxGeometry width="30" height="31" as="geometry">
            <mxRectangle width="30" height="31" as="alternateBounds" />
          </mxGeometry>
        </mxCell>
        <mxCell id="H8Cnw3-nCuT73okqzJ7A-3" value="precision_reservation VARCHAR(255)" style="shape=partialRectangle;overflow=hidden;connectable=0;fillColor=#fff2cc;top=0;left=0;bottom=0;right=0;align=left;spacingLeft=6;strokeColor=#d6b656;" vertex="1" parent="H8Cnw3-nCuT73okqzJ7A-1">
          <mxGeometry x="30" width="380" height="31" as="geometry">
            <mxRectangle width="380" height="31" as="alternateBounds" />
          </mxGeometry>
        </mxCell>
        <mxCell id="5EWCGwdDj0wh6ERNvwwW-43" style="shape=partialRectangle;collapsible=0;dropTarget=0;pointerEvents=0;fillColor=#fff2cc;points=[[0,0.5],[1,0.5]];portConstraint=eastwest;top=0;left=0;right=0;bottom=0;strokeColor=#d6b656;" parent="C-vyLk0tnHw3VtMMgP7b-23" vertex="1">
          <mxGeometry y="244" width="410" height="30" as="geometry" />
        </mxCell>
        <mxCell id="5EWCGwdDj0wh6ERNvwwW-44" style="shape=partialRectangle;overflow=hidden;connectable=0;fillColor=#fff2cc;top=0;left=0;bottom=0;right=0;strokeColor=#d6b656;" parent="5EWCGwdDj0wh6ERNvwwW-43" vertex="1">
          <mxGeometry width="30" height="30" as="geometry">
            <mxRectangle width="30" height="30" as="alternateBounds" />
          </mxGeometry>
        </mxCell>
        <mxCell id="5EWCGwdDj0wh6ERNvwwW-45" value="date_debut DATE NOT NULL" style="shape=partialRectangle;overflow=hidden;connectable=0;fillColor=#fff2cc;top=0;left=0;bottom=0;right=0;align=left;spacingLeft=6;strokeColor=#d6b656;" parent="5EWCGwdDj0wh6ERNvwwW-43" vertex="1">
          <mxGeometry x="30" width="380" height="30" as="geometry">
            <mxRectangle width="380" height="30" as="alternateBounds" />
          </mxGeometry>
        </mxCell>
        <mxCell id="5EWCGwdDj0wh6ERNvwwW-46" style="shape=partialRectangle;collapsible=0;dropTarget=0;pointerEvents=0;fillColor=#fff2cc;points=[[0,0.5],[1,0.5]];portConstraint=eastwest;top=0;left=0;right=0;bottom=0;strokeColor=#d6b656;" parent="C-vyLk0tnHw3VtMMgP7b-23" vertex="1">
          <mxGeometry y="274" width="410" height="30" as="geometry" />
        </mxCell>
        <mxCell id="5EWCGwdDj0wh6ERNvwwW-47" style="shape=partialRectangle;overflow=hidden;connectable=0;fillColor=#fff2cc;top=0;left=0;bottom=0;right=0;strokeColor=#d6b656;" parent="5EWCGwdDj0wh6ERNvwwW-46" vertex="1">
          <mxGeometry width="30" height="30" as="geometry">
            <mxRectangle width="30" height="30" as="alternateBounds" />
          </mxGeometry>
        </mxCell>
        <mxCell id="5EWCGwdDj0wh6ERNvwwW-48" value="date_fin DATE NOT NULL" style="shape=partialRectangle;overflow=hidden;connectable=0;fillColor=#fff2cc;top=0;left=0;bottom=0;right=0;align=left;spacingLeft=6;strokeColor=#d6b656;" parent="5EWCGwdDj0wh6ERNvwwW-46" vertex="1">
          <mxGeometry x="30" width="380" height="30" as="geometry">
            <mxRectangle width="380" height="30" as="alternateBounds" />
          </mxGeometry>
        </mxCell>
        <mxCell id="5EWCGwdDj0wh6ERNvwwW-1" value="Clients" style="shape=table;startSize=30;container=1;collapsible=1;childLayout=tableLayout;fixedRows=1;rowLines=0;fontStyle=1;align=center;resizeLast=1;fillColor=#fff2cc;strokeColor=#d6b656;" parent="1" vertex="1">
          <mxGeometry x="850" y="38" width="450" height="180" as="geometry" />
        </mxCell>
        <mxCell id="5EWCGwdDj0wh6ERNvwwW-2" value="" style="shape=tableRow;horizontal=0;startSize=0;swimlaneHead=0;swimlaneBody=0;fillColor=none;collapsible=0;dropTarget=0;points=[[0,0.5],[1,0.5]];portConstraint=eastwest;top=0;left=0;right=0;bottom=1;" parent="5EWCGwdDj0wh6ERNvwwW-1" vertex="1">
          <mxGeometry y="30" width="450" height="30" as="geometry" />
        </mxCell>
        <mxCell id="5EWCGwdDj0wh6ERNvwwW-3" value="ID" style="shape=partialRectangle;connectable=0;fillColor=#f8cecc;top=0;left=0;bottom=0;right=0;fontStyle=1;overflow=hidden;strokeColor=#b85450;" parent="5EWCGwdDj0wh6ERNvwwW-2" vertex="1">
          <mxGeometry width="30" height="30" as="geometry">
            <mxRectangle width="30" height="30" as="alternateBounds" />
          </mxGeometry>
        </mxCell>
        <mxCell id="5EWCGwdDj0wh6ERNvwwW-4" value="id_client int PRIMARY KEY AUTO_INCREMENT NOT NULL" style="shape=partialRectangle;connectable=0;fillColor=#f8cecc;top=0;left=0;bottom=0;right=0;align=left;spacingLeft=6;fontStyle=5;overflow=hidden;strokeColor=#b85450;" parent="5EWCGwdDj0wh6ERNvwwW-2" vertex="1">
          <mxGeometry x="30" width="420" height="30" as="geometry">
            <mxRectangle width="420" height="30" as="alternateBounds" />
          </mxGeometry>
        </mxCell>
        <mxCell id="5EWCGwdDj0wh6ERNvwwW-5" value="" style="shape=tableRow;horizontal=0;startSize=0;swimlaneHead=0;swimlaneBody=0;fillColor=none;collapsible=0;dropTarget=0;points=[[0,0.5],[1,0.5]];portConstraint=eastwest;top=0;left=0;right=0;bottom=0;" parent="5EWCGwdDj0wh6ERNvwwW-1" vertex="1">
          <mxGeometry y="60" width="450" height="30" as="geometry" />
        </mxCell>
        <mxCell id="5EWCGwdDj0wh6ERNvwwW-6" value="" style="shape=partialRectangle;connectable=0;fillColor=#fff2cc;top=0;left=0;bottom=0;right=0;editable=1;overflow=hidden;strokeColor=#d6b656;" parent="5EWCGwdDj0wh6ERNvwwW-5" vertex="1">
          <mxGeometry width="30" height="30" as="geometry">
            <mxRectangle width="30" height="30" as="alternateBounds" />
          </mxGeometry>
        </mxCell>
        <mxCell id="5EWCGwdDj0wh6ERNvwwW-7" value="nom_client VARCHAR(100) NOT NULL" style="shape=partialRectangle;connectable=0;fillColor=#fff2cc;top=0;left=0;bottom=0;right=0;align=left;spacingLeft=6;overflow=hidden;strokeColor=#d6b656;" parent="5EWCGwdDj0wh6ERNvwwW-5" vertex="1">
          <mxGeometry x="30" width="420" height="30" as="geometry">
            <mxRectangle width="420" height="30" as="alternateBounds" />
          </mxGeometry>
        </mxCell>
        <mxCell id="5EWCGwdDj0wh6ERNvwwW-8" value="" style="shape=tableRow;horizontal=0;startSize=0;swimlaneHead=0;swimlaneBody=0;fillColor=none;collapsible=0;dropTarget=0;points=[[0,0.5],[1,0.5]];portConstraint=eastwest;top=0;left=0;right=0;bottom=0;" parent="5EWCGwdDj0wh6ERNvwwW-1" vertex="1">
          <mxGeometry y="90" width="450" height="20" as="geometry" />
        </mxCell>
        <mxCell id="5EWCGwdDj0wh6ERNvwwW-9" value="" style="shape=partialRectangle;connectable=0;fillColor=#fff2cc;top=0;left=0;bottom=0;right=0;editable=1;overflow=hidden;strokeColor=#d6b656;" parent="5EWCGwdDj0wh6ERNvwwW-8" vertex="1">
          <mxGeometry width="30" height="20" as="geometry">
            <mxRectangle width="30" height="20" as="alternateBounds" />
          </mxGeometry>
        </mxCell>
        <mxCell id="5EWCGwdDj0wh6ERNvwwW-10" value="prenom_client VARCHAR(100) NOT NULL" style="shape=partialRectangle;connectable=0;fillColor=#fff2cc;top=0;left=0;bottom=0;right=0;align=left;spacingLeft=6;overflow=hidden;strokeColor=#d6b656;" parent="5EWCGwdDj0wh6ERNvwwW-8" vertex="1">
          <mxGeometry x="30" width="420" height="20" as="geometry">
            <mxRectangle width="420" height="20" as="alternateBounds" />
          </mxGeometry>
        </mxCell>
        <mxCell id="5EWCGwdDj0wh6ERNvwwW-11" value="" style="shape=tableRow;horizontal=0;startSize=0;swimlaneHead=0;swimlaneBody=0;fillColor=none;collapsible=0;dropTarget=0;points=[[0,0.5],[1,0.5]];portConstraint=eastwest;top=0;left=0;right=0;bottom=0;" parent="5EWCGwdDj0wh6ERNvwwW-1" vertex="1">
          <mxGeometry y="110" width="450" height="30" as="geometry" />
        </mxCell>
        <mxCell id="5EWCGwdDj0wh6ERNvwwW-12" value="" style="shape=partialRectangle;connectable=0;fillColor=#fff2cc;top=0;left=0;bottom=0;right=0;editable=1;overflow=hidden;strokeColor=#d6b656;" parent="5EWCGwdDj0wh6ERNvwwW-11" vertex="1">
          <mxGeometry width="30" height="30" as="geometry">
            <mxRectangle width="30" height="30" as="alternateBounds" />
          </mxGeometry>
        </mxCell>
        <mxCell id="5EWCGwdDj0wh6ERNvwwW-13" value="mail_cleint VARCHAR(255) NOT NULL" style="shape=partialRectangle;connectable=0;fillColor=#fff2cc;top=0;left=0;bottom=0;right=0;align=left;spacingLeft=6;overflow=hidden;strokeColor=#d6b656;" parent="5EWCGwdDj0wh6ERNvwwW-11" vertex="1">
          <mxGeometry x="30" width="420" height="30" as="geometry">
            <mxRectangle width="420" height="30" as="alternateBounds" />
          </mxGeometry>
        </mxCell>
        <mxCell id="5EWCGwdDj0wh6ERNvwwW-31" style="shape=tableRow;horizontal=0;startSize=0;swimlaneHead=0;swimlaneBody=0;fillColor=none;collapsible=0;dropTarget=0;points=[[0,0.5],[1,0.5]];portConstraint=eastwest;top=0;left=0;right=0;bottom=0;" parent="5EWCGwdDj0wh6ERNvwwW-1" vertex="1">
          <mxGeometry y="140" width="450" height="30" as="geometry" />
        </mxCell>
        <mxCell id="5EWCGwdDj0wh6ERNvwwW-32" style="shape=partialRectangle;connectable=0;fillColor=#fff2cc;top=0;left=0;bottom=0;right=0;editable=1;overflow=hidden;strokeColor=#d6b656;" parent="5EWCGwdDj0wh6ERNvwwW-31" vertex="1">
          <mxGeometry width="30" height="30" as="geometry">
            <mxRectangle width="30" height="30" as="alternateBounds" />
          </mxGeometry>
        </mxCell>
        <mxCell id="5EWCGwdDj0wh6ERNvwwW-33" value="telephone_client INT(10) NOT NULL" style="shape=partialRectangle;connectable=0;fillColor=#fff2cc;top=0;left=0;bottom=0;right=0;align=left;spacingLeft=6;overflow=hidden;strokeColor=#d6b656;" parent="5EWCGwdDj0wh6ERNvwwW-31" vertex="1">
          <mxGeometry x="30" width="420" height="30" as="geometry">
            <mxRectangle width="420" height="30" as="alternateBounds" />
          </mxGeometry>
        </mxCell>
        <mxCell id="5EWCGwdDj0wh6ERNvwwW-49" value="Statuts" style="shape=table;startSize=30;container=1;collapsible=1;childLayout=tableLayout;fixedRows=1;rowLines=0;fontStyle=1;align=center;resizeLast=1;fillColor=#fff2cc;strokeColor=#d6b656;" parent="1" vertex="1">
          <mxGeometry x="143.5" y="516" width="415" height="100" as="geometry" />
        </mxCell>
        <mxCell id="5EWCGwdDj0wh6ERNvwwW-50" value="" style="shape=tableRow;horizontal=0;startSize=0;swimlaneHead=0;swimlaneBody=0;fillColor=none;collapsible=0;dropTarget=0;points=[[0,0.5],[1,0.5]];portConstraint=eastwest;top=0;left=0;right=0;bottom=1;" parent="5EWCGwdDj0wh6ERNvwwW-49" vertex="1">
          <mxGeometry y="30" width="415" height="30" as="geometry" />
        </mxCell>
        <mxCell id="5EWCGwdDj0wh6ERNvwwW-51" value="ID" style="shape=partialRectangle;connectable=0;fillColor=#f8cecc;top=0;left=0;bottom=0;right=0;fontStyle=1;overflow=hidden;strokeColor=#b85450;" parent="5EWCGwdDj0wh6ERNvwwW-50" vertex="1">
          <mxGeometry width="30" height="30" as="geometry">
            <mxRectangle width="30" height="30" as="alternateBounds" />
          </mxGeometry>
        </mxCell>
        <mxCell id="5EWCGwdDj0wh6ERNvwwW-52" value="id_status int PRIMARY KEY AUTO_INCREMENT NOT NULL" style="shape=partialRectangle;connectable=0;fillColor=#f8cecc;top=0;left=0;bottom=0;right=0;align=left;spacingLeft=6;fontStyle=5;overflow=hidden;strokeColor=#b85450;" parent="5EWCGwdDj0wh6ERNvwwW-50" vertex="1">
          <mxGeometry x="30" width="385" height="30" as="geometry">
            <mxRectangle width="385" height="30" as="alternateBounds" />
          </mxGeometry>
        </mxCell>
        <mxCell id="5EWCGwdDj0wh6ERNvwwW-53" value="" style="shape=tableRow;horizontal=0;startSize=0;swimlaneHead=0;swimlaneBody=0;fillColor=none;collapsible=0;dropTarget=0;points=[[0,0.5],[1,0.5]];portConstraint=eastwest;top=0;left=0;right=0;bottom=0;" parent="5EWCGwdDj0wh6ERNvwwW-49" vertex="1">
          <mxGeometry y="60" width="415" height="30" as="geometry" />
        </mxCell>
        <mxCell id="5EWCGwdDj0wh6ERNvwwW-54" value="" style="shape=partialRectangle;connectable=0;fillColor=#fff2cc;top=0;left=0;bottom=0;right=0;editable=1;overflow=hidden;strokeColor=#d6b656;" parent="5EWCGwdDj0wh6ERNvwwW-53" vertex="1">
          <mxGeometry width="30" height="30" as="geometry">
            <mxRectangle width="30" height="30" as="alternateBounds" />
          </mxGeometry>
        </mxCell>
        <mxCell id="5EWCGwdDj0wh6ERNvwwW-55" value="nom_statut VARCHAR(50)" style="shape=partialRectangle;connectable=0;fillColor=#fff2cc;top=0;left=0;bottom=0;right=0;align=left;spacingLeft=6;overflow=hidden;strokeColor=#d6b656;" parent="5EWCGwdDj0wh6ERNvwwW-53" vertex="1">
          <mxGeometry x="30" width="385" height="30" as="geometry">
            <mxRectangle width="385" height="30" as="alternateBounds" />
          </mxGeometry>
        </mxCell>
        <mxCell id="5EWCGwdDj0wh6ERNvwwW-62" value="Ajouter" style="ellipse;whiteSpace=wrap;html=1;align=center;fillColor=#dae8fc;strokeColor=#6c8ebf;" parent="1" vertex="1">
          <mxGeometry x="653" y="155" width="100" height="40" as="geometry" />
        </mxCell>
        <mxCell id="5EWCGwdDj0wh6ERNvwwW-63" value="Affecter" style="ellipse;whiteSpace=wrap;html=1;align=center;fillColor=#dae8fc;strokeColor=#6c8ebf;" parent="1" vertex="1">
          <mxGeometry x="301" y="396" width="100" height="40" as="geometry" />
        </mxCell>
        <mxCell id="5EWCGwdDj0wh6ERNvwwW-64" value="" style="endArrow=none;html=1;rounded=0;dashed=1;dashPattern=1 2;exitX=0.5;exitY=1;exitDx=0;exitDy=0;entryX=0.5;entryY=0;entryDx=0;entryDy=0;" parent="1" source="C-vyLk0tnHw3VtMMgP7b-23" target="5EWCGwdDj0wh6ERNvwwW-63" edge="1">
          <mxGeometry relative="1" as="geometry">
            <mxPoint x="515" y="375" as="sourcePoint" />
            <mxPoint x="675" y="375" as="targetPoint" />
          </mxGeometry>
        </mxCell>
        <mxCell id="5EWCGwdDj0wh6ERNvwwW-65" value="1" style="resizable=0;html=1;align=right;verticalAlign=bottom;" parent="5EWCGwdDj0wh6ERNvwwW-64" connectable="0" vertex="1">
          <mxGeometry x="1" relative="1" as="geometry">
            <mxPoint y="-25" as="offset" />
          </mxGeometry>
        </mxCell>
        <mxCell id="5EWCGwdDj0wh6ERNvwwW-66" value="" style="endArrow=none;html=1;rounded=0;dashed=1;dashPattern=1 2;exitX=0.5;exitY=0;exitDx=0;exitDy=0;entryX=0.5;entryY=1;entryDx=0;entryDy=0;" parent="1" source="5EWCGwdDj0wh6ERNvwwW-49" target="5EWCGwdDj0wh6ERNvwwW-63" edge="1">
          <mxGeometry relative="1" as="geometry">
            <mxPoint x="515" y="375" as="sourcePoint" />
            <mxPoint x="675" y="375" as="targetPoint" />
          </mxGeometry>
        </mxCell>
        <mxCell id="5EWCGwdDj0wh6ERNvwwW-67" value="N" style="resizable=0;html=1;align=right;verticalAlign=bottom;" parent="5EWCGwdDj0wh6ERNvwwW-66" connectable="0" vertex="1">
          <mxGeometry x="1" relative="1" as="geometry">
            <mxPoint y="43" as="offset" />
          </mxGeometry>
        </mxCell>
        <mxCell id="5EWCGwdDj0wh6ERNvwwW-68" value="0," style="text;html=1;strokeColor=none;fillColor=none;align=center;verticalAlign=middle;whiteSpace=wrap;rounded=0;" parent="1" vertex="1">
          <mxGeometry x="307" y="456" width="60" height="30" as="geometry" />
        </mxCell>
        <mxCell id="5EWCGwdDj0wh6ERNvwwW-69" value="0," style="text;html=1;strokeColor=none;fillColor=none;align=center;verticalAlign=middle;whiteSpace=wrap;rounded=0;" parent="1" vertex="1">
          <mxGeometry x="311" y="347" width="60" height="30" as="geometry" />
        </mxCell>
        <mxCell id="5EWCGwdDj0wh6ERNvwwW-73" value="" style="endArrow=none;html=1;rounded=0;dashed=1;dashPattern=1 2;exitX=1;exitY=0.5;exitDx=0;exitDy=0;entryX=0;entryY=0.5;entryDx=0;entryDy=0;startArrow=none;" parent="1" source="5EWCGwdDj0wh6ERNvwwW-34" target="5EWCGwdDj0wh6ERNvwwW-62" edge="1">
          <mxGeometry relative="1" as="geometry">
            <mxPoint x="606" y="128.001611582438" as="sourcePoint" />
            <mxPoint x="606" y="203.95" as="targetPoint" />
          </mxGeometry>
        </mxCell>
        <mxCell id="5EWCGwdDj0wh6ERNvwwW-74" value="1" style="resizable=0;html=1;align=right;verticalAlign=bottom;" parent="5EWCGwdDj0wh6ERNvwwW-73" connectable="0" vertex="1">
          <mxGeometry x="1" relative="1" as="geometry">
            <mxPoint x="-35" as="offset" />
          </mxGeometry>
        </mxCell>
        <mxCell id="5EWCGwdDj0wh6ERNvwwW-75" value="0," style="text;html=1;strokeColor=none;fillColor=none;align=center;verticalAlign=middle;whiteSpace=wrap;rounded=0;" parent="1" vertex="1">
          <mxGeometry x="577" y="152" width="60" height="30" as="geometry" />
        </mxCell>
        <mxCell id="5EWCGwdDj0wh6ERNvwwW-78" value="" style="endArrow=none;html=1;rounded=0;dashed=1;dashPattern=1 2;exitX=1;exitY=0.5;exitDx=0;exitDy=0;entryX=0;entryY=0.5;entryDx=0;entryDy=0;" parent="1" source="5EWCGwdDj0wh6ERNvwwW-34" target="5EWCGwdDj0wh6ERNvwwW-62" edge="1">
          <mxGeometry relative="1" as="geometry">
            <mxPoint x="556" y="175" as="sourcePoint" />
            <mxPoint x="653" y="175" as="targetPoint" />
          </mxGeometry>
        </mxCell>
        <mxCell id="5EWCGwdDj0wh6ERNvwwW-80" value="" style="endArrow=none;html=1;rounded=0;dashed=1;dashPattern=1 2;entryX=1;entryY=0.5;entryDx=0;entryDy=0;" parent="1" target="5EWCGwdDj0wh6ERNvwwW-62" edge="1">
          <mxGeometry relative="1" as="geometry">
            <mxPoint x="853" y="175" as="sourcePoint" />
            <mxPoint x="361" y="446" as="targetPoint" />
          </mxGeometry>
        </mxCell>
        <mxCell id="5EWCGwdDj0wh6ERNvwwW-81" value="N" style="resizable=0;html=1;align=right;verticalAlign=bottom;" parent="5EWCGwdDj0wh6ERNvwwW-80" connectable="0" vertex="1">
          <mxGeometry x="1" relative="1" as="geometry">
            <mxPoint x="65" as="offset" />
          </mxGeometry>
        </mxCell>
        <mxCell id="5EWCGwdDj0wh6ERNvwwW-82" value="0," style="text;html=1;strokeColor=none;fillColor=none;align=center;verticalAlign=middle;whiteSpace=wrap;rounded=0;" parent="1" vertex="1">
          <mxGeometry x="772" y="152" width="60" height="30" as="geometry" />
        </mxCell>
        <mxCell id="SX0s2zKZqbYPIPkI49GV-2" value="GESTIONNAIRE" style="swimlane;fontStyle=0;childLayout=stackLayout;horizontal=1;startSize=30;horizontalStack=0;resizeParent=1;resizeParentMax=0;resizeLast=0;collapsible=1;marginBottom=0;fillColor=#fff2cc;strokeColor=#d6b656;" parent="1" vertex="1">
          <mxGeometry x="870" y="367" width="140" height="120" as="geometry" />
        </mxCell>
        <mxCell id="SX0s2zKZqbYPIPkI49GV-5" value="id_user  PRIMARY KEY AUTO_INCREMENT NOT NULL" style="text;strokeColor=#b85450;fillColor=#f8cecc;align=left;verticalAlign=middle;spacingLeft=4;spacingRight=4;overflow=hidden;points=[[0,0.5],[1,0.5]];portConstraint=eastwest;rotatable=0;fontStyle=5" parent="SX0s2zKZqbYPIPkI49GV-2" vertex="1">
          <mxGeometry y="30" width="140" height="30" as="geometry" />
        </mxCell>
        <mxCell id="SX0s2zKZqbYPIPkI49GV-7" value="username" style="text;strokeColor=#d6b656;fillColor=#fff2cc;align=left;verticalAlign=middle;spacingLeft=4;spacingRight=4;overflow=hidden;points=[[0,0.5],[1,0.5]];portConstraint=eastwest;rotatable=0;" parent="SX0s2zKZqbYPIPkI49GV-2" vertex="1">
          <mxGeometry y="60" width="140" height="30" as="geometry" />
        </mxCell>
        <mxCell id="SX0s2zKZqbYPIPkI49GV-8" value="password" style="text;strokeColor=#d6b656;fillColor=#fff2cc;align=left;verticalAlign=middle;spacingLeft=4;spacingRight=4;overflow=hidden;points=[[0,0.5],[1,0.5]];portConstraint=eastwest;rotatable=0;" parent="SX0s2zKZqbYPIPkI49GV-2" vertex="1">
          <mxGeometry y="90" width="140" height="30" as="geometry" />
        </mxCell>
      </root>
    </mxGraphModel>
  </diagram>
</mxfile>
